<svg xmlns="http://www.w3.org/2000/svg" width="925" height="600"><rect width="925" height="600" x="0" y="0" fill="#fffded" id="background"/><g transform="translate(120,50)" id="visualization"><g id="axis"><g transform="translate(0,500)" fill="none" font-size="10" font-family="sans-serif" text-anchor="middle"><path class="domain" stroke="currentColor" d="M0,6V0H635V6"/><g class="tick" opacity="1" transform="translate(0,0)"><line stroke="currentColor" y2="6"/><text fill="currentColor" y="9" dy="0.71em">1940</text></g><g class="tick" opacity="1" transform="translate(71,0)"><line stroke="currentColor" y2="6"/><text fill="currentColor" y="9" dy="0.71em">1950</text></g><g class="tick" opacity="1" transform="translate(141,0)"><line stroke="currentColor" y2="6"/><text fill="currentColor" y="9" dy="0.71em">1960</text></g><g class="tick" opacity="1" transform="translate(212,0)"><line stroke="currentColor" y2="6"/><text fill="currentColor" y="9" dy="0.71em">1970</text></g><g class="tick" opacity="1" transform="translate(282,0)"><line stroke="currentColor" y2="6"/><text fill="currentColor" y="9" dy="0.71em">1980</text></g><g class="tick" opacity="1" transform="translate(353,0)"><line stroke="currentColor" y2="6"/><text fill="currentColor" y="9" dy="0.71em">1990</text></g><g class="tick" opacity="1" transform="translate(423,0)"><line stroke="currentColor" y2="6"/><text fill="currentColor" y="9" dy="0.71em">2000</text></g><g class="tick" opacity="1" transform="translate(494,0)"><line stroke="currentColor" y2="6"/><text fill="currentColor" y="9" dy="0.71em">2010</text></g><g class="tick" opacity="1" transform="translate(564,0)"><line stroke="currentColor" y2="6"/><text fill="currentColor" y="9" dy="0.71em">2020</text></g><g class="tick" opacity="1" transform="translate(635,0)"><line stroke="currentColor" y2="6"/><text fill="currentColor" y="9" dy="0.71em">2030</text></g></g></g><g id="viz"><g id="Alcide De Gasperi" transform="translate(0,0)"><text x="-4" y="6.944444444444445" text-anchor="end" dominant-baseline="middle" style="font-family: Arial, sans-serif; font-size: 10px; fill: black; font-weight: normal;">Alcide De Gasperi</text><rect x="46" y="0" width="4" height="13.88888888888889" fill="#5e4fa2"/><rect x="50" y="0" width="2" height="13.88888888888889" fill="#5e4fa2"/><rect x="52" y="0" width="7" height="13.88888888888889" fill="#5e4fa2"/><rect x="59" y="0" width="12" height="13.88888888888889" fill="#5e4fa2"/><rect x="71" y="0" width="11" height="13.88888888888889" fill="#5e4fa2"/><rect x="82" y="0" width="14" height="13.88888888888889" fill="#5e4fa2"/><rect x="96" y="0" width="1" height="13.88888888888889" fill="#5e4fa2"/><line x1="0" y1="0" x2="635" y2="0" style="stroke: rgb(204, 204, 204);"/></g><g id="Giuseppe Pella" transform="translate(0,13.88888888888889)"><text x="-4" y="6.944444444444445" text-anchor="end" dominant-baseline="middle" style="font-family: Arial, sans-serif; font-size: 10px; fill: black; font-weight: normal;">Giuseppe Pella</text><rect x="96" y="0" width="3" height="13.88888888888889" fill="#5e4fa2"/><line x1="0" y1="0" x2="635" y2="0" style="stroke: rgb(204, 204, 204);"/></g><g id="Amintore Fanfani" transform="translate(0,27.77777777777778)"><text x="-4" y="6.944444444444445" text-anchor="end" dominant-baseline="middle" style="font-family: Arial, sans-serif; font-size: 10px; fill: black; font-weight: normal;">Amintore Fanfani</text><rect x="99" y="0" width="1" height="13.88888888888889" fill="#5e4fa2"/><rect x="131" y="0" width="4" height="13.88888888888889" fill="#5e4fa2"/><rect x="145" y="0" width="11" height="13.88888888888889" fill="#5e4fa2"/><rect x="156" y="0" width="10" height="13.88888888888889" fill="#5e4fa2"/><rect x="303" y="0" width="5" height="13.88888888888889" fill="#5e4fa2"/><rect x="334" y="0" width="2" height="13.88888888888889" fill="#5e4fa2"/><line x1="0" y1="0" x2="635" y2="0" style="stroke: rgb(204, 204, 204);"/></g><g id="Mario Scelba" transform="translate(0,41.66666666666667)"><text x="-4" y="6.944444444444445" text-anchor="end" dominant-baseline="middle" style="font-family: Arial, sans-serif; font-size: 10px; fill: black; font-weight: normal;">Mario Scelba</text><rect x="100" y="0" width="9" height="13.88888888888889" fill="#5e4fa2"/><line x1="0" y1="0" x2="635" y2="0" style="stroke: rgb(204, 204, 204);"/></g><g id="Antonio Segni" transform="translate(0,55.55555555555556)"><text x="-4" y="6.944444444444445" text-anchor="end" dominant-baseline="middle" style="font-family: Arial, sans-serif; font-size: 10px; fill: black; font-weight: normal;">Antonio Segni</text><rect x="109" y="0" width="14" height="13.88888888888889" fill="#5e4fa2"/><rect x="135" y="0" width="8" height="13.88888888888889" fill="#5e4fa2"/><rect x="158" y="0" width="18" height="13.88888888888889" fill="#ff006a"/><line x1="0" y1="0" x2="635" y2="0" style="stroke: rgb(204, 204, 204);"/></g><g id="Adone Zoli" transform="translate(0,69.44444444444444)"><text x="-4" y="6.944444444444445" text-anchor="end" dominant-baseline="middle" style="font-family: Arial, sans-serif; font-size: 10px; fill: black; font-weight: normal;">Adone Zoli</text><rect x="123" y="0" width="8" height="13.88888888888889" fill="#5e4fa2"/><line x1="0" y1="0" x2="635" y2="0" style="stroke: rgb(204, 204, 204);"/></g><g id="Fernando Tambroni" transform="translate(0,83.33333333333334)"><text x="-4" y="6.944444444444445" text-anchor="end" dominant-baseline="middle" style="font-family: Arial, sans-serif; font-size: 10px; fill: black; font-weight: normal;">Fernando Tambroni</text><rect x="143" y="0" width="2" height="13.88888888888889" fill="#5e4fa2"/><line x1="0" y1="0" x2="635" y2="0" style="stroke: rgb(204, 204, 204);"/></g><g id="Giovanni Leone" transform="translate(0,97.22222222222223)"><text x="-4" y="6.944444444444445" text-anchor="end" dominant-baseline="middle" style="font-family: Arial, sans-serif; font-size: 10px; fill: black; font-weight: normal;">Giovanni Leone</text><rect x="166" y="0" width="3" height="13.88888888888889" fill="#5e4fa2"/><rect x="201" y="0" width="3" height="13.88888888888889" fill="#5e4fa2"/><rect x="226" y="0" width="45" height="13.88888888888889" fill="#ff006a"/><line x1="0" y1="0" x2="635" y2="0" style="stroke: rgb(204, 204, 204);"/></g><g id="Aldo Moro" transform="translate(0,111.11111111111111)"><text x="-4" y="6.944444444444445" text-anchor="end" dominant-baseline="middle" style="font-family: Arial, sans-serif; font-size: 10px; fill: black; font-weight: normal;">Aldo Moro</text><rect x="169" y="0" width="4" height="13.88888888888889" fill="#5e4fa2"/><rect x="173" y="0" width="11" height="13.88888888888889" fill="#5e4fa2"/><rect x="184" y="0" width="17" height="13.88888888888889" fill="#5e4fa2"/><rect x="246" y="0" width="9" height="13.88888888888889" fill="#5e4fa2"/><rect x="255" y="0" width="3" height="13.88888888888889" fill="#5e4fa2"/><line x1="0" y1="0" x2="635" y2="0" style="stroke: rgb(204, 204, 204);"/></g><g id="Mariano Rumor" transform="translate(0,125)"><text x="-4" y="6.944444444444445" text-anchor="end" dominant-baseline="middle" style="font-family: Arial, sans-serif; font-size: 10px; fill: black; font-weight: normal;">Mariano Rumor</text><rect x="204" y="0" width="5" height="13.88888888888889" fill="#5e4fa2"/><rect x="209" y="0" width="4" height="13.88888888888889" fill="#5e4fa2"/><rect x="213" y="0" width="3" height="13.88888888888889" fill="#5e4fa2"/><rect x="236" y="0" width="5" height="13.88888888888889" fill="#5e4fa2"/><rect x="241" y="0" width="5" height="13.88888888888889" fill="#5e4fa2"/><line x1="0" y1="0" x2="635" y2="0" style="stroke: rgb(204, 204, 204);"/></g><g id="Emilio Colombo" transform="translate(0,138.88888888888889)"><text x="-4" y="6.944444444444445" text-anchor="end" dominant-baseline="middle" style="font-family: Arial, sans-serif; font-size: 10px; fill: black; font-weight: normal;">Emilio Colombo</text><rect x="216" y="0" width="11" height="13.88888888888889" fill="#5e4fa2"/><line x1="0" y1="0" x2="635" y2="0" style="stroke: rgb(204, 204, 204);"/></g><g id="Giulio Andreotti" transform="translate(0,152.77777777777777)"><text x="-4" y="6.944444444444445" text-anchor="end" dominant-baseline="middle" style="font-family: Arial, sans-serif; font-size: 10px; fill: black; font-weight: normal;">Giulio Andreotti</text><rect x="227" y="0" width="9" height="13.88888888888889" fill="#5e4fa2"/><rect x="236" y="0" width="1" height="13.88888888888889" fill="#5e4fa2"/><rect x="258" y="0" width="11" height="13.88888888888889" fill="#5e4fa2"/><rect x="269" y="0" width="8" height="13.88888888888889" fill="#5e4fa2"/><rect x="277" y="0" width="2" height="13.88888888888889" fill="#5e4fa2"/><rect x="350" y="0" width="12" height="13.88888888888889" fill="#5e4fa2"/><rect x="362" y="0" width="8" height="13.88888888888889" fill="#5e4fa2"/><line x1="0" y1="0" x2="635" y2="0" style="stroke: rgb(204, 204, 204);"/></g><g id="Francesco Cossiga" transform="translate(0,166.66666666666669)"><text x="-4" y="6.944444444444445" text-anchor="end" dominant-baseline="middle" style="font-family: Arial, sans-serif; font-size: 10px; fill: black; font-weight: normal;">Francesco Cossiga</text><rect x="279" y="0" width="5" height="13.88888888888889" fill="#5e4fa2"/><rect x="284" y="0" width="4" height="13.88888888888889" fill="#5e4fa2"/><rect x="321" y="0" width="48" height="13.88888888888889" fill="#ff006a"/><line x1="0" y1="0" x2="635" y2="0" style="stroke: rgb(204, 204, 204);"/></g><g id="Arnaldo Forlani" transform="translate(0,180.55555555555557)"><text x="-4" y="6.944444444444445" text-anchor="end" dominant-baseline="middle" style="font-family: Arial, sans-serif; font-size: 10px; fill: black; font-weight: normal;">Arnaldo Forlani</text><rect x="288" y="0" width="5" height="13.88888888888889" fill="#5e4fa2"/><line x1="0" y1="0" x2="635" y2="0" style="stroke: rgb(204, 204, 204);"/></g><g id="Giovanni Spadolini" transform="translate(0,194.44444444444446)"><text x="-4" y="6.944444444444445" text-anchor="end" dominant-baseline="middle" style="font-family: Arial, sans-serif; font-size: 10px; fill: black; font-weight: normal;">Giovanni Spadolini</text><rect x="293" y="0" width="8" height="13.88888888888889" fill="#5e4fa2"/><rect x="301" y="0" width="2" height="13.88888888888889" fill="#5e4fa2"/><line x1="0" y1="0" x2="635" y2="0" style="stroke: rgb(204, 204, 204);"/></g><g id="Bettino Craxi" transform="translate(0,208.33333333333334)"><text x="-4" y="6.944444444444445" text-anchor="end" dominant-baseline="middle" style="font-family: Arial, sans-serif; font-size: 10px; fill: black; font-weight: normal;">Bettino Craxi</text><rect x="308" y="0" width="21" height="13.88888888888889" fill="#5e4fa2"/><rect x="329" y="0" width="5" height="13.88888888888889" fill="#5e4fa2"/><line x1="0" y1="0" x2="635" y2="0" style="stroke: rgb(204, 204, 204);"/></g><g id="Giovanni Goria" transform="translate(0,222.22222222222223)"><text x="-4" y="6.944444444444445" text-anchor="end" dominant-baseline="middle" style="font-family: Arial, sans-serif; font-size: 10px; fill: black; font-weight: normal;">Giovanni Goria</text><rect x="336" y="0" width="5" height="13.88888888888889" fill="#5e4fa2"/><line x1="0" y1="0" x2="635" y2="0" style="stroke: rgb(204, 204, 204);"/></g><g id="Ciriaco De Mita" transform="translate(0,236.11111111111111)"><text x="-4" y="6.944444444444445" text-anchor="end" dominant-baseline="middle" style="font-family: Arial, sans-serif; font-size: 10px; fill: black; font-weight: normal;">Ciriaco De Mita</text><rect x="341" y="0" width="9" height="13.88888888888889" fill="#5e4fa2"/><line x1="0" y1="0" x2="635" y2="0" style="stroke: rgb(204, 204, 204);"/></g><g id="Giuliano Amato" transform="translate(0,250)"><text x="-4" y="6.944444444444445" text-anchor="end" dominant-baseline="middle" style="font-family: Arial, sans-serif; font-size: 10px; fill: black; font-weight: normal;">Giuliano Amato</text><rect x="370" y="0" width="6" height="13.88888888888889" fill="#5e4fa2"/><rect x="426" y="0" width="8" height="13.88888888888889" fill="#5e4fa2"/><line x1="0" y1="0" x2="635" y2="0" style="stroke: rgb(204, 204, 204);"/></g><g id="Carlo Azeglio Ciampi" transform="translate(0,263.8888888888889)"><text x="-4" y="6.944444444444445" text-anchor="end" dominant-baseline="middle" style="font-family: Arial, sans-serif; font-size: 10px; fill: black; font-weight: normal;">Carlo Azeglio Ciampi</text><rect x="376" y="0" width="7" height="13.88888888888889" fill="#5e4fa2"/><rect x="419" y="0" width="49" height="13.88888888888889" fill="#ff006a"/><line x1="0" y1="0" x2="635" y2="0" style="stroke: rgb(204, 204, 204);"/></g><g id="Silvio Berlusconi" transform="translate(0,277.77777777777777)"><text x="-4" y="6.944444444444445" text-anchor="end" dominant-baseline="middle" style="font-family: Arial, sans-serif; font-size: 10px; fill: black; font-weight: normal;">Silvio Berlusconi</text><rect x="383" y="0" width="5" height="13.88888888888889" fill="#5e4fa2"/><rect x="434" y="0" width="27" height="13.88888888888889" fill="#5e4fa2"/><rect x="461" y="0" width="7" height="13.88888888888889" fill="#5e4fa2"/><rect x="482" y="0" width="25" height="13.88888888888889" fill="#5e4fa2"/><line x1="0" y1="0" x2="635" y2="0" style="stroke: rgb(204, 204, 204);"/></g><g id="Lamberto Dini" transform="translate(0,291.6666666666667)"><text x="-4" y="6.944444444444445" text-anchor="end" dominant-baseline="middle" style="font-family: Arial, sans-serif; font-size: 10px; fill: black; font-weight: normal;">Lamberto Dini</text><rect x="388" y="0" width="10" height="13.88888888888889" fill="#5e4fa2"/><line x1="0" y1="0" x2="635" y2="0" style="stroke: rgb(204, 204, 204);"/></g><g id="Romano Prodi" transform="translate(0,305.55555555555554)"><text x="-4" y="6.944444444444445" text-anchor="end" dominant-baseline="middle" style="font-family: Arial, sans-serif; font-size: 10px; fill: black; font-weight: normal;">Romano Prodi</text><rect x="398" y="0" width="17" height="13.88888888888889" fill="#5e4fa2"/><rect x="468" y="0" width="14" height="13.88888888888889" fill="#5e4fa2"/><line x1="0" y1="0" x2="635" y2="0" style="stroke: rgb(204, 204, 204);"/></g><g id="Massimo D'Alema" transform="translate(0,319.44444444444446)"><text x="-4" y="6.944444444444445" text-anchor="end" dominant-baseline="middle" style="font-family: Arial, sans-serif; font-size: 10px; fill: black; font-weight: normal;">Massimo D'Alema</text><rect x="415" y="0" width="8" height="13.88888888888889" fill="#5e4fa2"/><rect x="423" y="0" width="3" height="13.88888888888889" fill="#5e4fa2"/><line x1="0" y1="0" x2="635" y2="0" style="stroke: rgb(204, 204, 204);"/></g><g id="Mario Monti" transform="translate(0,333.33333333333337)"><text x="-4" y="6.944444444444445" text-anchor="end" dominant-baseline="middle" style="font-family: Arial, sans-serif; font-size: 10px; fill: black; font-weight: normal;">Mario Monti</text><rect x="507" y="0" width="10" height="13.88888888888889" fill="#5e4fa2"/><line x1="0" y1="0" x2="635" y2="0" style="stroke: rgb(204, 204, 204);"/></g><g id="Enrico Letta" transform="translate(0,347.22222222222223)"><text x="-4" y="6.944444444444445" text-anchor="end" dominant-baseline="middle" style="font-family: Arial, sans-serif; font-size: 10px; fill: black; font-weight: normal;">Enrico Letta</text><rect x="517" y="0" width="6" height="13.88888888888889" fill="#5e4fa2"/><line x1="0" y1="0" x2="635" y2="0" style="stroke: rgb(204, 204, 204);"/></g><g id="Matteo Renzi" transform="translate(0,361.11111111111114)"><text x="-4" y="6.944444444444445" text-anchor="end" dominant-baseline="middle" style="font-family: Arial, sans-serif; font-size: 10px; fill: black; font-weight: normal;">Matteo Renzi</text><rect x="523" y="0" width="20" height="13.88888888888889" fill="#5e4fa2"/><line x1="0" y1="0" x2="635" y2="0" style="stroke: rgb(204, 204, 204);"/></g><g id="Paolo Gentiloni" transform="translate(0,375)"><text x="-4" y="6.944444444444445" text-anchor="end" dominant-baseline="middle" style="font-family: Arial, sans-serif; font-size: 10px; fill: black; font-weight: normal;">Paolo Gentiloni</text><rect x="543" y="0" width="10" height="13.88888888888889" fill="#5e4fa2"/><line x1="0" y1="0" x2="635" y2="0" style="stroke: rgb(204, 204, 204);"/></g><g id="Giuseppe Conte" transform="translate(0,388.8888888888889)"><text x="-4" y="6.944444444444445" text-anchor="end" dominant-baseline="middle" style="font-family: Arial, sans-serif; font-size: 10px; fill: black; font-weight: normal;">Giuseppe Conte</text><rect x="553" y="0" width="9" height="13.88888888888889" fill="#5e4fa2"/><rect x="562" y="0" width="10" height="13.88888888888889" fill="#5e4fa2"/><line x1="0" y1="0" x2="635" y2="0" style="stroke: rgb(204, 204, 204);"/></g><g id="Oscar Luigi Scalfaro" transform="translate(0,402.77777777777777)"><text x="-4" y="6.944444444444445" text-anchor="end" dominant-baseline="middle" style="font-family: Arial, sans-serif; font-size: 10px; fill: black; font-weight: normal;">Oscar Luigi Scalfaro</text><rect x="370" y="0" width="49" height="13.88888888888889" fill="#ff006a"/><line x1="0" y1="0" x2="635" y2="0" style="stroke: rgb(204, 204, 204);"/></g><g id="Giovanni Gronchi" transform="translate(0,416.6666666666667)"><text x="-4" y="6.944444444444445" text-anchor="end" dominant-baseline="middle" style="font-family: Arial, sans-serif; font-size: 10px; fill: black; font-weight: normal;">Giovanni Gronchi</text><rect x="108" y="0" width="50" height="13.88888888888889" fill="#ff006a"/><line x1="0" y1="0" x2="635" y2="0" style="stroke: rgb(204, 204, 204);"/></g><g id="Giuseppe Saragat" transform="translate(0,430.55555555555554)"><text x="-4" y="6.944444444444445" text-anchor="end" dominant-baseline="middle" style="font-family: Arial, sans-serif; font-size: 10px; fill: black; font-weight: normal;">Giuseppe Saragat</text><rect x="176" y="0" width="50" height="13.88888888888889" fill="#ff006a"/><line x1="0" y1="0" x2="635" y2="0" style="stroke: rgb(204, 204, 204);"/></g><g id="Giorgio Napolitano" transform="translate(0,444.44444444444446)"><text x="-4" y="6.944444444444445" text-anchor="end" dominant-baseline="middle" style="font-family: Arial, sans-serif; font-size: 10px; fill: black; font-weight: normal;">Giorgio Napolitano</text><rect x="468" y="0" width="61" height="13.88888888888889" fill="#ff006a"/><line x1="0" y1="0" x2="635" y2="0" style="stroke: rgb(204, 204, 204);"/></g><g id="Sandro Pertini" transform="translate(0,458.33333333333337)"><text x="-4" y="6.944444444444445" text-anchor="end" dominant-baseline="middle" style="font-family: Arial, sans-serif; font-size: 10px; fill: black; font-weight: normal;">Sandro Pertini</text><rect x="272" y="0" width="49" height="13.88888888888889" fill="#ff006a"/><line x1="0" y1="0" x2="635" y2="0" style="stroke: rgb(204, 204, 204);"/></g><g id="Luigi Einaudi" transform="translate(0,472.22222222222223)"><text x="-4" y="6.944444444444445" text-anchor="end" dominant-baseline="middle" style="font-family: Arial, sans-serif; font-size: 10px; fill: black; font-weight: normal;">Luigi Einaudi</text><rect x="59" y="0" width="49" height="13.88888888888889" fill="#ff006a"/><line x1="0" y1="0" x2="635" y2="0" style="stroke: rgb(204, 204, 204);"/></g><g id="Enrico de Nicola" transform="translate(0,486.11111111111114)"><text x="-4" y="6.944444444444445" text-anchor="end" dominant-baseline="middle" style="font-family: Arial, sans-serif; font-size: 10px; fill: black; font-weight: normal;">Enrico de Nicola</text><rect x="56" y="0" width="3" height="13.88888888888889" fill="#ff006a"/><line x1="0" y1="0" x2="635" y2="0" style="stroke: rgb(204, 204, 204);"/></g></g></g><g id="legend" transform="translate(805,50)"><g transform="translate(5,0)"><g class="legendColor" transform="translate(0,0)"><g class="legendCells" transform="translate(0,16)"><g class="cell" transform="translate(0, 0)"><rect class="swatch" height="15" width="15" style="fill: rgb(255, 0, 106);"/><text class="label" transform="translate( 20, 12.5)" font-family="&quot;Arial&quot;, sans-serif" font-size="10px"><tspan x="0" dy="0em">President</tspan></text></g><g class="cell" transform="translate(0, 21)"><rect class="swatch" height="15" width="15" style="fill: rgb(94, 79, 162);"/><text class="label" transform="translate( 20, 12.5)" font-family="&quot;Arial&quot;, sans-serif" font-size="10px"><tspan x="0" dy="0em">Prime minister</tspan></text></g></g><text class="legendTitle" font-family="&quot;Arial&quot;, sans-serif" font-size="12px" font-weight="bold"><tspan x="0" dy="0em">Role</tspan></text></g></g></g></svg>