<?xml version="1.0" encoding="iso-8859-1"?>
<!-- Generator: Adobe Illustrator 19.1.1, SVG Export Plug-In . SVG Version: 6.00 Build 0)  -->
<svg version="1.1"  xmlns="http://www.w3.org/2000/svg" xmlns:xlink="http://www.w3.org/1999/xlink" x="0px" y="0px"
	 viewBox="0 0 40 40" style="enable-background:new 0 0 40 40;" xml:space="preserve">
<g>
	<rect x="1.5" y="3.5" style="fill:#FFFFFF;" width="37" height="33"/>
	<g>
		<path style="fill:#788B9C;" d="M38,4v32H2V4H38 M39,3H1v34h38V3L39,3z"/>
	</g>
</g>
<g>
	<rect x="1" y="3.071" style="fill:#788B9C;" width="38" height="5.929"/>
</g>
<circle style="fill:#FFFFFF;" cx="20" cy="23" r="7.714"/>
<g>
	<g>
		<path style="fill:#F78F8F;" d="M20,31.5c-4.687,0-8.5-3.813-8.5-8.5s3.813-8.5,8.5-8.5s8.5,3.813,8.5,8.5S24.687,31.5,20,31.5z
			 M16.147,28.267l0.556,0.328C17.705,29.187,18.845,29.5,20,29.5c3.584,0,6.5-2.916,6.5-6.5c0-1.154-0.313-2.294-0.905-3.298
			l-0.328-0.555L16.147,28.267z M20,16.5c-3.584,0-6.5,2.916-6.5,6.5c0,1.154,0.313,2.294,0.905,3.298l0.328,0.555l9.119-9.12
			l-0.556-0.328C22.295,16.813,21.155,16.5,20,16.5z"/>
	</g>
	<g>
		<path style="fill:#C74343;" d="M20,15c4.411,0,8,3.589,8,8s-3.589,8-8,8s-8-3.589-8-8S15.589,15,20,15 M14.631,27.663l0.912-0.912
			l8.208-8.208l0.912-0.912l-1.111-0.656C22.472,16.337,21.244,16,20,16c-3.86,0-7,3.14-7,7c0,1.244,0.337,2.472,0.975,3.552
			L14.631,27.663 M20,30c3.86,0,7-3.14,7-7c0-1.244-0.337-2.472-0.975-3.552l-0.656-1.111l-0.912,0.912l-8.208,8.208l-0.912,0.912
			l1.111,0.656C17.527,29.663,18.756,30,20,30 M20,14c-4.971,0-9,4.029-9,9c0,4.971,4.029,9,9,9s9-4.029,9-9
			C29,18.029,24.971,14,20,14L20,14z M14.836,26.043C14.308,25.15,14,24.112,14,23c0-3.314,2.686-6,6-6
			c1.112,0,2.15,0.308,3.043,0.836L14.836,26.043L14.836,26.043z M20,29c-1.112,0-2.15-0.308-3.043-0.836l8.208-8.208
			C25.692,20.85,26,21.888,26,23C26,26.314,23.314,29,20,29L20,29z"/>
	</g>
</g>
</svg>
