<?xml version="1.0" encoding="iso-8859-1"?>
<!-- Generator: Adobe Illustrator 21.0.2, SVG Export Plug-In . SVG Version: 6.00 Build 0)  -->
<svg xmlns="http://www.w3.org/2000/svg" xmlns:xlink="http://www.w3.org/1999/xlink" version="1.1" id="Layer_1" x="0px" y="0px" viewBox="0 0 40 40" style="enable-background:new 0 0 40 40;" xml:space="preserve">
<g>
	<path style="fill:#B6DCFE;" d="M20,26.5c-5.238,0-9.5-4.262-9.5-9.5s4.262-9.5,9.5-9.5s9.5,4.262,9.5,9.5S25.238,26.5,20,26.5z"/>
	<path style="fill:#4788C7;" d="M20,8c4.963,0,9,4.037,9,9s-4.037,9-9,9s-9-4.037-9-9S15.037,8,20,8 M20,7c-5.523,0-10,4.477-10,10   s4.477,10,10,10s10-4.477,10-10S25.523,7,20,7L20,7z"/>
</g>
<g>
	<rect x="10.5" y="17.5" style="fill:#DFF0FE;" width="19" height="7"/>
	<g>
		<path style="fill:#4788C7;" d="M29,18v6H11v-6H29 M30,17H10v8h20V17L30,17z"/>
	</g>
</g>
<g>
	<rect x="1.5" y="24.5" style="fill:#DFF0FE;" width="37" height="14"/>
	<g>
		<path style="fill:#4788C7;" d="M38,25v13H2V25H38 M39,24H1v15h38V24L39,24z"/>
	</g>
</g>
<g>
	<path style="fill:#98CCFD;" d="M15,24h-2l0-3c0-0.552,0.448-1,1-1h0c0.552,0,1,0.448,1,1L15,24z"/>
</g>
<g>
	<path style="fill:#98CCFD;" d="M19,24h-2v-3c0-0.552,0.448-1,1-1h0c0.552,0,1,0.448,1,1V24z"/>
</g>
<g>
	<path style="fill:#98CCFD;" d="M23,24h-2v-3c0-0.552,0.448-1,1-1h0c0.552,0,1,0.448,1,1V24z"/>
</g>
<g>
	<path style="fill:#98CCFD;" d="M27,24h-2v-3c0-0.552,0.448-1,1-1h0c0.552,0,1,0.448,1,1V24z"/>
</g>
<g>
	<rect x="33" y="34" style="fill:#98CCFD;" width="2" height="4"/>
</g>
<g>
	<rect x="33" y="27" style="fill:#98CCFD;" width="2" height="4"/>
</g>
<g>
	<rect x="29" y="34" style="fill:#98CCFD;" width="2" height="4"/>
</g>
<g>
	<rect x="29" y="27" style="fill:#98CCFD;" width="2" height="4"/>
</g>
<g>
	<rect x="25" y="34" style="fill:#98CCFD;" width="2" height="4"/>
</g>
<g>
	<rect x="25" y="27" style="fill:#98CCFD;" width="2" height="4"/>
</g>
<g>
	<rect x="21" y="34" style="fill:#98CCFD;" width="2" height="4"/>
</g>
<g>
	<rect x="21" y="27" style="fill:#98CCFD;" width="2" height="4"/>
</g>
<g>
	<rect x="17" y="34" style="fill:#98CCFD;" width="2" height="4"/>
</g>
<g>
	<rect x="17" y="27" style="fill:#98CCFD;" width="2" height="4"/>
</g>
<g>
	<rect x="13" y="34" style="fill:#98CCFD;" width="2" height="4"/>
</g>
<g>
	<rect x="13" y="27" style="fill:#98CCFD;" width="2" height="4"/>
</g>
<g>
	<rect x="9" y="34" style="fill:#98CCFD;" width="2" height="4"/>
</g>
<g>
	<rect x="9" y="27" style="fill:#98CCFD;" width="2" height="4"/>
</g>
<g>
	<rect x="5" y="34" style="fill:#98CCFD;" width="2" height="4"/>
</g>
<g>
	<rect x="5" y="27" style="fill:#98CCFD;" width="2" height="4"/>
</g>
<g>
	<path style="fill:#98CCFD;" d="M25.503,5.5c-0.543,0-1.111-0.209-1.768-0.452c-0.843-0.312-1.872-0.691-3.235-0.769V1.516   c1.161,0.074,2.062,0.396,2.868,0.685c0.73,0.261,1.419,0.508,2.149,0.508c0.673,0,1.318-0.213,1.983-0.661v2.498   C26.555,5.388,25.938,5.5,25.503,5.5z"/>
	<g>
		<path style="fill:#4788C7;" d="M21,2.068c0.837,0.116,1.526,0.363,2.199,0.603c0.772,0.276,1.501,0.537,2.318,0.537    c0.507,0,0.997-0.102,1.483-0.313v1.421C26.279,4.915,25.825,5,25.503,5c-0.454,0-0.957-0.186-1.594-0.421    C23.131,4.291,22.202,3.948,21,3.818V2.068 M28,1c-0.963,0.906-1.735,1.209-2.483,1.209C24.021,2.208,22.624,1,20,1v3.765    C22.667,4.765,24.021,6,25.503,6C26.243,6,27.016,5.691,28,4.765V1L28,1z"/>
	</g>
</g>
</svg>
